<?xml version="1.0" encoding="UTF-8" standalone="no"?>
<svg width="156px" height="30px" viewBox="0 0 156 30" version="1.1" xmlns="http://www.w3.org/2000/svg" xmlns:xlink="http://www.w3.org/1999/xlink" xmlns:sketch="http://www.bohemiancoding.com/sketch/ns">
    <!-- Generator: Sketch 3.3 (11970) - http://www.bohemiancoding.com/sketch -->
    <title>logo</title>
    <desc>Created with Sketch.</desc>
    <defs></defs>
    <g id="Page-1" stroke="none" stroke-width="1" fill="none" fill-rule="evenodd" sketch:type="MSPage">
        <g id="Client" sketch:type="MSArtboardGroup" transform="translate(-434.000000, -17.000000)" fill="#000000">
            <g id="Top" sketch:type="MSLayerGroup">
                <g id="logo" transform="translate(434.000000, 17.000000)" sketch:type="MSShapeGroup">
                    <g id="Group">
                        <g transform="translate(0.000000, 15.000000)" id="Shape">
                            <path d="M22.8494118,6.81818182 L16.9305882,3.90909091 L139.023529,3.90909091 L133.104706,6.81818182 L22.8494118,6.81818182 L22.8494118,6.81818182 Z"></path>
                            <path d="M42.5329412,10.7272727 L36.6141176,7.81818182 L119.34,7.81818182 L113.421176,10.7272727 L42.5329412,10.7272727 L42.5329412,10.7272727 Z"></path>
                            <path d="M65.1988235,14.6363636 L59.28,11.7272727 L96.6741176,11.7272727 L90.7552941,14.6363636 L65.1988235,14.6363636 L65.1988235,14.6363636 Z"></path>
                            <g>
                                <path d="M6.10235294,2.90909091 L0.229411765,0 L52.3976471,0 L58.3164706,2.90909091 L6.10235294,2.90909091 L6.10235294,2.90909091 Z"></path>
                                <path d="M97.6376471,2.90909091 L103.556471,0 L155.770588,0 L149.851765,2.90909091 L97.6376471,2.90909091 L97.6376471,2.90909091 Z"></path>
                            </g>
                        </g>
                        <g transform="translate(0.917647, 0.000000)" id="Shape">
                            <path d="M6.69882353,4.63636364 C6.56117647,4.86363636 6.33176471,5.09090909 6.05647059,5.27272727 C5.78117647,5.45454545 5.41411765,5.59090909 5.00117647,5.68181818 C4.58823529,5.81818182 4.12941176,5.81818182 3.62470588,5.81818182 C3.12,5.81818182 2.66117647,5.77272727 2.24823529,5.68181818 C1.83529412,5.54545455 1.46823529,5.45454545 1.19294118,5.27272727 C0.917647059,5.09090909 0.688235294,4.90909091 0.550588235,4.63636364 C0.412941176,4.40909091 0.321176471,4.13636364 0.321176471,3.81818182 L0.321176471,2.90909091 L1.69764706,2.90909091 L1.69764706,3.68181818 C1.69764706,4.04545455 1.83529412,4.31818182 2.20235294,4.5 C2.56941176,4.68181818 3.07411765,4.81818182 3.67058824,4.81818182 C4.31294118,4.81818182 4.81764706,4.68181818 5.13882353,4.5 C5.50588235,4.31818182 5.64352941,4 5.64352941,3.68181818 L5.64352941,0.227272727 L7.02,0.227272727 L7.02,3.86363636 C6.92823529,4.13636364 6.83647059,4.40909091 6.69882353,4.63636364 L6.69882353,4.63636364 Z"></path>
                            <path d="M17.2517647,5.68181818 L17.2517647,0.181818182 L23.2623529,0.181818182 L23.2623529,1.22727273 L18.5823529,1.22727273 L18.5823529,2.36363636 L21.84,2.36363636 L21.84,3.40909091 L18.5823529,3.40909091 L18.5823529,4.63636364 L23.4917647,4.63636364 L23.4917647,5.68181818 L17.2517647,5.68181818 L17.2517647,5.68181818 Z"></path>
                            <path d="M36.7058824,1.27272727 L36.7058824,5.72727273 L35.3294118,5.72727273 L35.3294118,1.27272727 L32.6682353,1.27272727 L32.6682353,0.227272727 L39.3211765,0.227272727 L39.3211765,1.27272727 L36.7058824,1.27272727 L36.7058824,1.27272727 Z"></path>
                            <path d="M52.8105882,1.27272727 C52.4435294,1.13636364 51.9847059,1.13636364 51.5717647,1.13636364 C50.9752941,1.13636364 50.5623529,1.18181818 50.2411765,1.27272727 C49.92,1.40909091 49.8282353,1.5 49.8282353,1.68181818 C49.8282353,1.86363636 49.9658824,2 50.2870588,2.04545455 C50.4247059,2.09090909 50.5623529,2.09090909 50.7,2.13636364 C50.8376471,2.13636364 51.0211765,2.18181818 51.2047059,2.18181818 C51.3882353,2.18181818 51.5717647,2.18181818 51.7552941,2.22727273 C51.9388235,2.22727273 52.1223529,2.27272727 52.3976471,2.27272727 C52.8105882,2.31818182 53.2235294,2.40909091 53.5447059,2.45454545 C53.8658824,2.5 54.1411765,2.63636364 54.3705882,2.77272727 C54.6,2.90909091 54.7376471,3.09090909 54.8294118,3.27272727 C54.9670588,3.45454545 54.9670588,3.68181818 54.9670588,3.95454545 C54.9670588,4.59090909 54.6917647,5.04545455 54.1411765,5.31818182 C53.5905882,5.68181818 52.7647059,5.81818182 51.7094118,5.81818182 C51.0211765,5.81818182 50.3788235,5.72727273 49.7823529,5.59090909 C49.1858824,5.45454545 48.6352941,5.18181818 48.1305882,4.77272727 L48.8647059,3.90909091 C49.3235294,4.22727273 49.8282353,4.40909091 50.2870588,4.54545455 C50.7458824,4.68181818 51.2505882,4.72727273 51.8011765,4.72727273 C52.3517647,4.72727273 52.8105882,4.63636364 53.0858824,4.5 C53.4070588,4.36363636 53.5447059,4.18181818 53.5447059,3.95454545 C53.5447059,3.81818182 53.4988235,3.72727273 53.4070588,3.68181818 C53.3152941,3.59090909 53.2235294,3.54545455 53.04,3.54545455 C52.9023529,3.5 52.6729412,3.45454545 52.4435294,3.45454545 C52.2141176,3.45454545 51.9388235,3.40909091 51.6176471,3.40909091 C51.0670588,3.36363636 50.6082353,3.31818182 50.1952941,3.27272727 C49.8282353,3.18181818 49.4611765,3.13636364 49.1858824,2.95454545 C48.9105882,2.81818182 48.7270588,2.63636364 48.5435294,2.45454545 C48.4058824,2.27272727 48.36,2.04545455 48.36,1.77272727 C48.36,1.22727273 48.6352941,0.818181818 49.14,0.454545455 C49.6905882,0.136363636 50.4247059,0 51.4341176,0 C52.8105882,0 53.8658824,0.272727273 54.6917647,0.818181818 L53.9117647,1.68181818 C53.5905882,1.54545455 53.2235294,1.36363636 52.8105882,1.27272727 L52.8105882,1.27272727 Z"></path>
                            <path d="M71.6223529,5.68181818 L71.6223529,1.77272727 L71.5764706,1.77272727 L68.9152941,4.90909091 L66.2541176,1.77272727 L66.2082353,1.77272727 L66.2082353,5.68181818 L64.8317647,5.68181818 L64.8317647,0.181818182 L66.4376471,0.181818182 L68.8694118,3.09090909 L71.3011765,0.181818182 L72.9070588,0.181818182 L72.9070588,5.68181818 L71.6223529,5.68181818 L71.6223529,5.68181818 Z"></path>
                            <path d="M88.5529412,5.68181818 L87.9105882,4.5 L84.3317647,4.5 L83.6894118,5.68181818 L82.3129412,5.68181818 L85.2494118,0.181818182 L86.9011765,0.181818182 L89.8376471,5.68181818 L88.5529412,5.68181818 L88.5529412,5.68181818 Z M86.1211765,1.22727273 L84.9282353,3.5 L87.36,3.5 L86.1211765,1.22727273 L86.1211765,1.22727273 Z"></path>
                            <path d="M104.565882,5.68181818 L103.189412,3.72727273 L100.62,3.72727273 L100.62,5.68181818 L99.2435294,5.68181818 L99.2435294,0.181818182 L103.785882,0.181818182 C104.107059,0.181818182 104.428235,0.227272727 104.657647,0.318181818 C104.932941,0.409090909 105.116471,0.5 105.3,0.681818182 C105.483529,0.818181818 105.621176,1.04545455 105.712941,1.27272727 C105.804706,1.5 105.850588,1.72727273 105.850588,2 C105.850588,2.86363636 105.437647,3.40909091 104.565882,3.63636364 L105.942353,5.68181818 L104.565882,5.68181818 L104.565882,5.68181818 L104.565882,5.68181818 Z M104.336471,2.5 C104.474118,2.36363636 104.565882,2.18181818 104.565882,1.95454545 C104.565882,1.72727273 104.474118,1.59090909 104.336471,1.45454545 C104.198824,1.31818182 103.969412,1.27272727 103.694118,1.27272727 L100.665882,1.27272727 L100.665882,2.72727273 L103.74,2.72727273 C103.969412,2.72727273 104.198824,2.63636364 104.336471,2.5 L104.336471,2.5 Z"></path>
                            <path d="M118.835294,1.27272727 L118.835294,5.72727273 L117.458824,5.72727273 L117.458824,1.27272727 L114.797647,1.27272727 L114.797647,0.227272727 L121.450588,0.227272727 L121.450588,1.27272727 L118.835294,1.27272727 L118.835294,1.27272727 Z"></path>
                            <path d="M131.04,5.68181818 L131.04,0.181818182 L137.050588,0.181818182 L137.050588,1.22727273 L132.370588,1.22727273 L132.370588,2.36363636 L135.628235,2.36363636 L135.628235,3.40909091 L132.370588,3.40909091 L132.370588,4.63636364 L137.28,4.63636364 L137.28,5.68181818 L131.04,5.68181818 L131.04,5.68181818 Z"></path>
                            <path d="M152.375294,5.68181818 L150.998824,3.72727273 L148.429412,3.72727273 L148.429412,5.68181818 L147.052941,5.68181818 L147.052941,0.181818182 L151.595294,0.181818182 C151.916471,0.181818182 152.237647,0.227272727 152.467059,0.318181818 C152.742353,0.409090909 152.925882,0.5 153.109412,0.681818182 C153.292941,0.818181818 153.430588,1.04545455 153.522353,1.27272727 C153.614118,1.5 153.66,1.72727273 153.66,2 C153.66,2.86363636 153.247059,3.40909091 152.375294,3.63636364 L153.751765,5.68181818 L152.375294,5.68181818 L152.375294,5.68181818 L152.375294,5.68181818 Z M152.191765,2.5 C152.329412,2.36363636 152.421176,2.18181818 152.421176,1.95454545 C152.421176,1.72727273 152.329412,1.59090909 152.191765,1.45454545 C152.054118,1.31818182 151.824706,1.27272727 151.549412,1.27272727 L148.521176,1.27272727 L148.521176,2.72727273 L151.595294,2.72727273 C151.824706,2.72727273 152.054118,2.63636364 152.191765,2.5 L152.191765,2.5 Z"></path>
                        </g>
                    </g>
                </g>
            </g>
        </g>
    </g>
</svg>