<?xml version="1.0" encoding="UTF-8"?>
<svg width="800px" height="600px" viewBox="0 0 800 600" version="1.1" xmlns="http://www.w3.org/2000/svg" xmlns:xlink="http://www.w3.org/1999/xlink">
    <!-- Generator: Sketch 55.2 (78181) - https://sketchapp.com -->
    <title>other</title>
    <desc>Created with Sketch.</desc>
    <defs>
        <polygon id="path-1" points="0.632627754 0.634616541 405.685039 0.634616541 405.685039 293.526466 0.632627754 293.526466"></polygon>
    </defs>
    <g id="other" stroke="none" stroke-width="1" fill="none" fill-rule="evenodd">
        <g id="Group-3-Copy-2" transform="translate(0.000000, 118.000000)">
            <path d="M262.056357,146.902526 L262.441237,146.638346 L468.06323,5.35409023 L413.37457,5.43114286 L240.516838,124.199519 L239.780069,124.705865 L239.587629,124.510481 L172.299656,57.606782 C128.571821,14.9691579 94.0343643,4.28360902 47.4171821,5.34033083 L196.962199,154.126211 L0,289.460902 L54.3862543,289.595744 L219.238488,176.325624 L219.485911,176.573293 L348.019244,304.689805 C388.148454,343.183098 431.408935,363.208526 478.092096,362.21785 L262.056357,146.902526 Z" id="Fill-3" fill="#FFFFFF"></path>
            <g id="Group-7" transform="translate(392.254570, 0.000000)">
                <mask id="mask-2" fill="white">
                    <use xlink:href="#path-1"></use>
                </mask>
                <g id="Clip-6"></g>
                <path d="M335.244261,161.277245 C310.554227,246.087426 243.571409,269.610493 165.388591,267.018223 C71.8518213,263.908598 45.5947766,218.17511 71.1205498,135.844373 C97.0421993,52.2367639 165.611271,27.7202677 240.324674,26.9167188 C300.275189,26.2727789 331.005086,51.5542977 342.037388,76.2909444 C350.675189,96.3851699 344.096495,130.885486 335.244261,161.277245 M398.587216,60.583215 C382.983093,30.3042827 345.592027,1.69574135 251.843574,0.669290226 C142.469003,-0.527777444 46.5597251,28.6861774 11.7446048,131.790854 C-20.5413058,227.424177 15.3927148,289.440538 147.673127,293.243636 C258.271065,296.419305 355.532921,274.038268 393.220893,165.520644 C406.106117,128.422553 410.7989,85.151997 398.587216,60.583215" id="Fill-5" fill="#FFFFFF" mask="url(#mask-2)"></path>
            </g>
        </g>
    </g>
</svg>