<?xml version="1.0" encoding="UTF-8"?>
<svg width="480px" height="440px" viewBox="0 0 480 440" version="1.1" xmlns="http://www.w3.org/2000/svg" xmlns:xlink="http://www.w3.org/1999/xlink">
    <!-- Generator: Sketch 58 (84663) - https://sketch.com -->
    <title>Logo-on-White Copy</title>
    <desc>Created with Sketch.</desc>
    <defs>
        <polygon id="path-1" points="0.00046977421 0.144073062 253.815561 0.144073062 253.815561 189.516758 0.00046977421 189.516758"></polygon>
    </defs>
    <g id="Logo-on-White-Copy" stroke="none" stroke-width="1" fill="none" fill-rule="evenodd">
        <g id="Logo-on-white" transform="translate(26.000000, 133.000000)">
            <g id="Group-7">
                <g id="Group-6">
                    <g id="Group-3" transform="translate(0.000000, 2.314141)">
                        <mask id="mask-2" fill="white">
                            <use xlink:href="#path-1"></use>
                        </mask>
                        <g id="Clip-2"></g>
                        <path d="M139.124885,75.2788754 L139.328454,75.1386957 L248.491453,0.191083012 L219.458624,0.22945624 L127.689015,63.2351638 L127.299102,63.5029933 L127.195752,63.3996205 L91.4733381,27.9090835 C68.2586625,5.29002355 49.9225921,-0.379033516 25.1733208,0.18090236 L104.565945,79.1107163 L0.00046977421,150.901544 L28.8743586,150.972808 L116.391728,90.8865985 L116.524048,91.0181639 L184.760318,158.981066 C206.066144,179.400322 229.031839,190.023441 253.815561,189.498746 L139.124885,75.2788754 Z" id="Fill-1" fill="#D8353B" mask="url(#mask-2)"></path>
                    </g>
                    <path d="M386.223536,85.2177764 C373.116052,130.208428 337.556494,142.686775 296.048027,141.310038 C246.390544,139.661555 232.450778,115.400278 246.001415,71.7260627 C259.76345,27.3744427 296.167037,14.3682678 335.831639,13.9422467 C367.659625,13.6008033 383.9741,27.0118548 389.829836,40.1347156 C394.416398,50.7930754 390.922844,69.0963219 386.223536,85.2177764 M341.946534,0.0190299885 C283.880875,-0.616086088 232.964398,14.8812161 214.481131,69.5755957 C197.339853,120.308135 216.417384,153.205739 286.644714,155.223074 C345.359443,156.908363 396.995458,145.033807 417.003142,87.4684837 C423.843838,67.7892828 426.33599,44.8350444 419.853106,31.8022433 C411.568637,15.7395234 391.717545,0.562520195 341.946534,0.0190299885 Z" id="Fill-4" fill="#E3E5EB"></path>
                </g>
            </g>
        </g>
    </g>
</svg>
